<?xml version="1.0" encoding="utf-8"?>
<!-- Generator: Adobe Illustrator 22.1.0, SVG Export Plug-In . SVG Version: 6.00 Build 0)  -->
<svg version="1.1" id="Слой_1" xmlns="http://www.w3.org/2000/svg" xmlns:xlink="http://www.w3.org/1999/xlink" x="0px" y="0px"
	 viewBox="0 0 10.6 10.6" style="enable-background:new 0 0 10.6 10.6;" xml:space="preserve">
<style type="text/css">
	.st0{fill:#34495E;}
</style>
<g>
	<title>03A269DA-84D1-4381-8277-36CB31A38A8E</title>
	<desc>Created with sketchtool.</desc>
	<g id="UI-kit_x2F__x2F_Focus-Start">
		<g id="UI-KIT_x2F__x2F_Focus-Start" transform="translate(-1333.000000, -2204.000000)">
			<g id="Notifications" transform="translate(283.000000, 2128.000000)">
				<g id="Modal-_x2F_-Simple" transform="translate(704.000000, 57.000000)">
					<g id="Icon-:-Cross_x2F_close" transform="translate(347.000000, 20.000000)">
						<g id="Group-22">
							<g id="Clip-21">
							</g>
						</g>
						<path class="st0" d="M8.6,9.6c-0.3,0-0.5-0.1-0.7-0.3l-8.6-8.6c-0.4-0.4-0.4-1,0-1.4s1-0.4,1.4,0l8.6,8.6c0.4,0.4,0.4,1,0,1.4
							C9.1,9.5,8.8,9.6,8.6,9.6z"/>
						<path class="st0" d="M0,9.6c-0.3,0-0.5-0.1-0.7-0.3c-0.4-0.4-0.4-1,0-1.4l8.6-8.6c0.4-0.4,1-0.4,1.4,0s0.4,1,0,1.4L0.7,9.3
							C0.5,9.5,0.3,9.6,0,9.6z"/>
					</g>
				</g>
			</g>
		</g>
	</g>
</g>
</svg>
