<?xml version="1.0" encoding="utf-8"?>
<!-- Generator: Adobe Illustrator 22.1.0, SVG Export Plug-In . SVG Version: 6.00 Build 0)  -->
<svg version="1.1" id="Слой_1" xmlns="http://www.w3.org/2000/svg" xmlns:xlink="http://www.w3.org/1999/xlink" x="0px" y="0px"
	 viewBox="0 0 29.2 21.2" style="enable-background:new 0 0 29.2 21.2;" xml:space="preserve">
<style type="text/css">
	.st0{fill:#4990E2;}
</style>
<g>
	<title>D6CAFEAD-D727-427E-882A-B6EA9F27D94B</title>
	<desc>Created with sketchtool.</desc>
	<g id="Symbols">
		<g id="Icon-:-thick-check">
			<g transform="translate(2.000000, 6.000000)">
				<path class="st0" d="M7.8,15.2c-0.3,0-0.5-0.1-0.7-0.3l-8.8-9.2c-0.4-0.4-0.4-1,0-1.4s1-0.4,1.4,0l8.8,9.2c0.4,0.4,0.4,1,0,1.4
					C8.3,15.1,8,15.2,7.8,15.2z"/>
				<path class="st0" d="M7.9,15.1c-0.2,0-0.5-0.1-0.7-0.3c-0.4-0.4-0.4-1,0-1.4L25.5-5.7c0.4-0.4,1-0.4,1.4,0c0.4,0.4,0.4,1,0,1.4
					L8.6,14.8C8.4,15,8.1,15.1,7.9,15.1z"/>
			</g>
		</g>
	</g>
</g>
</svg>
