<?xml version="1.0" encoding="utf-8"?>
<!-- Generator: Adobe Illustrator 22.1.0, SVG Export Plug-In . SVG Version: 6.00 Build 0)  -->
<svg version="1.1" id="Слой_1" xmlns="http://www.w3.org/2000/svg" xmlns:xlink="http://www.w3.org/1999/xlink" x="0px" y="0px"
	 viewBox="0 0 32 32" style="enable-background:new 0 0 32 32;" xml:space="preserve">
<style type="text/css">
	.st0{fill:#4990E2;}
</style>
<title>A8AB5207-EB70-4A0E-ADF2-79DD7C5E1782</title>
<desc>Created with sketchtool.</desc>
<g id="Symbols">
	<g id="Icon-:-Cross_x2F_close">
		<g transform="translate(6.000000, 6.000000)">
			<g id="Group-22">
				<g id="Clip-21">
				</g>
			</g>
			<path class="st0" d="M18.6,19.6c-0.3,0-0.5-0.1-0.7-0.3L0.7,2.1c-0.4-0.4-0.4-1,0-1.4s1-0.4,1.4,0l17.1,17.1c0.4,0.4,0.4,1,0,1.4
				C19.1,19.5,18.8,19.6,18.6,19.6z"/>
			<path class="st0" d="M1.4,19.6c-0.3,0-0.5-0.1-0.7-0.3c-0.4-0.4-0.4-1,0-1.4L17.9,0.7c0.4-0.4,1-0.4,1.4,0s0.4,1,0,1.4L2.1,19.3
				C1.9,19.5,1.7,19.6,1.4,19.6z"/>
		</g>
	</g>
</g>
</svg>
