<?xml version="1.0" encoding="utf-8"?>
<!-- Generator: Adobe Illustrator 22.1.0, SVG Export Plug-In . SVG Version: 6.00 Build 0)  -->
<svg version="1.1" id="Слой_1" xmlns="http://www.w3.org/2000/svg" xmlns:xlink="http://www.w3.org/1999/xlink" x="0px" y="0px"
	 viewBox="0 0 32 32" style="enable-background:new 0 0 32 32;" xml:space="preserve">
<style type="text/css">
	.st0{fill:#4990E2;}
</style>
<title>E3F58FE8-D52F-4E91-81F3-45439745C7C6</title>
<desc>Created with sketchtool.</desc>
<g id="Symbols">
	<g id="Icon-:-Sort_x2F_filters">
		<g transform="translate(4.000000, 6.000000)">
			<path class="st0" d="M13.3,2.5H0c-0.6,0-1-0.4-1-1s0.4-1,1-1h13.3c0.6,0,1,0.4,1,1S13.9,2.5,13.3,2.5z"/>
			<path class="st0" d="M9.3,10.5H0c-0.6,0-1-0.4-1-1s0.4-1,1-1h9.3c0.6,0,1,0.4,1,1S9.9,10.5,9.3,10.5z"/>
			<path class="st0" d="M4,18.5H0c-0.6,0-1-0.4-1-1s0.4-1,1-1h4c0.6,0,1,0.4,1,1S4.6,18.5,4,18.5z"/>
			
				<g id="Icon-:-arrow-right" transform="translate(18.500000, 10.333333) rotate(-270.000000) translate(-18.500000, -10.333333) translate(9.500000, 4.833333)">
				<path class="st0" d="M18.2,5.3c0,0.3-0.1,0.5-0.3,0.7c-0.2,0.2-0.4,0.3-0.7,0.3c-0.3,0-0.5-0.1-0.7-0.3l-5.2-5.3
					c-0.4-0.4-0.4-1,0-1.4C11.5-0.9,11.7-1,12-1c0.3,0,0.5,0.1,0.7,0.3l5.2,5.3C18.1,4.8,18.2,5.1,18.2,5.3z"/>
				<path class="st0" d="M17,5.3c0,0.6-0.4,1-1,1H0c-0.6,0-1-0.4-1-1s0.4-1,1-1h16C16.6,4.3,17,4.8,17,5.3z"/>
				<path class="st0" d="M18.2,5.3c0,0.3-0.1,0.5-0.3,0.7l-5.2,5.3c-0.4,0.4-1,0.4-1.4,0c-0.4-0.4-0.4-1,0-1.4l5.2-5.3
					c0.4-0.4,1-0.4,1.4,0C18,4.8,18.2,5.1,18.2,5.3z"/>
			</g>
		</g>
	</g>
</g>
</svg>
