<?xml version="1.0" encoding="utf-8"?>
<!-- Generator: Adobe Illustrator 22.1.0, SVG Export Plug-In . SVG Version: 6.00 Build 0)  -->
<svg version="1.1" id="Слой_1" xmlns="http://www.w3.org/2000/svg" xmlns:xlink="http://www.w3.org/1999/xlink" x="0px" y="0px"
	 viewBox="0 0 32 32" style="enable-background:new 0 0 32 32;" xml:space="preserve">
<style type="text/css">
	.st0{fill:#4990E2;}
</style>
<title>9C0EC198-F548-4EFE-9922-7E4863BE21CA</title>
<desc>Created with sketchtool.</desc>
<g id="Symbols">
	<g id="Icon-:-list-search">
		<g transform="translate(3.000000, 6.000000)">
			<path class="st0" d="M19.2,21c-0.3,0-0.5-0.1-0.7-0.3l-5.6-5.6c-0.4-0.4-0.4-1,0-1.4s1-0.4,1.4,0l5.6,5.6c0.4,0.4,0.4,1,0,1.4
				C19.7,20.9,19.5,21,19.2,21z"/>
			<path class="st0" d="M8.4,17C3.2,17-1,13-1,8c0-5,4.2-9,9.4-9s9.4,4,9.4,9C17.8,13,13.6,17,8.4,17z M8.4,1C4.3,1,1,4.1,1,8
				c0,3.9,3.3,7,7.4,7s7.4-3.1,7.4-7C15.8,4.1,12.5,1,8.4,1z"/>
			<path class="st0" d="M26.4,4h-7.2c-0.6,0-1-0.4-1-1s0.4-1,1-1h7.2c0.6,0,1,0.4,1,1S27,4,26.4,4z"/>
			<path class="st0" d="M26.4,8h-7.2c-0.6,0-1-0.4-1-1s0.4-1,1-1h7.2c0.6,0,1,0.4,1,1S27,8,26.4,8z"/>
			<path class="st0" d="M26.4,12h-7.2c-0.6,0-1-0.4-1-1c0-0.6,0.4-1,1-1h7.2c0.6,0,1,0.4,1,1C27.4,11.6,27,12,26.4,12z"/>
		</g>
	</g>
</g>
</svg>
