<?xml version="1.0" encoding="utf-8"?>
<!-- Generator: Adobe Illustrator 22.1.0, SVG Export Plug-In . SVG Version: 6.00 Build 0)  -->
<svg version="1.1" id="Слой_1" xmlns="http://www.w3.org/2000/svg" xmlns:xlink="http://www.w3.org/1999/xlink" x="0px" y="0px"
	 viewBox="0 0 32 32" style="enable-background:new 0 0 32 32;" xml:space="preserve">
<style type="text/css">
	.st0{fill:#4990E2;}
	.st1{opacity:0.7182;fill:#4990E2;enable-background:new    ;}
</style>
<title>FAB98240-EC78-4C89-9D00-127FADDB6D85</title>
<desc>Created with sketchtool.</desc>
<g id="Symbols">
	<g id="Icon-:-Credit-card2">
		<g transform="translate(3.000000, 8.000000)">
			<path class="st0" d="M26.4,17H0.6C-0.3,17-1,16.3-1,15.4V0.6C-1-0.3-0.3-1,0.6-1h25.7C27.3-1,28-0.3,28,0.6v14.9
				C28,16.3,27.3,17,26.4,17z M1,15h25V1H1V15z"/>
			<path id="Rectangle" class="st0" d="M4.8,3.9h2.9c0.6,0,1,0.4,1,1v2.4c0,0.6-0.4,1-1,1H4.8c-0.6,0-1-0.4-1-1V4.9
				C3.8,4.3,4.2,3.9,4.8,3.9z"/>
			<path id="Numbers" class="st1" d="M4.1,13.3H3.2c-0.2,0-0.4-0.2-0.4-0.4c0-0.2,0.2-0.4,0.4-0.4h0.9c0.2,0,0.4,0.2,0.4,0.4
				C4.6,13.1,4.4,13.3,4.1,13.3"/>
			<path id="Numbers_1_" class="st1" d="M6.3,13.3H5.4c-0.2,0-0.4-0.2-0.4-0.4c0-0.2,0.2-0.4,0.4-0.4h0.9c0.2,0,0.4,0.2,0.4,0.4
				C6.8,13.1,6.6,13.3,6.3,13.3"/>
			<path id="Numbers_2_" class="st1" d="M8.6,13.3H7.7c-0.2,0-0.4-0.2-0.4-0.4c0-0.2,0.2-0.4,0.4-0.4h0.9c0.2,0,0.4,0.2,0.4,0.4
				C9,13.1,8.8,13.3,8.6,13.3"/>
			<path id="Numbers_3_" class="st1" d="M12.6,13.3h-0.9c-0.2,0-0.4-0.2-0.4-0.4c0-0.2,0.2-0.4,0.4-0.4h0.9c0.2,0,0.4,0.2,0.4,0.4
				C13,13.1,12.8,13.3,12.6,13.3"/>
			<path id="Numbers_4_" class="st1" d="M14.8,13.3h-0.9c-0.2,0-0.4-0.2-0.4-0.4c0-0.2,0.2-0.4,0.4-0.4h0.9c0.2,0,0.4,0.2,0.4,0.4
				C15.2,13.1,15,13.3,14.8,13.3"/>
			<path id="Numbers_5_" class="st1" d="M17,13.3h-0.9c-0.2,0-0.4-0.2-0.4-0.4c0-0.2,0.2-0.4,0.4-0.4H17c0.2,0,0.4,0.2,0.4,0.4
				C17.4,13.1,17.2,13.3,17,13.3"/>
			<path id="Numbers_6_" class="st1" d="M19.6,13.3h-0.9c-0.2,0-0.4-0.2-0.4-0.4c0-0.2,0.2-0.4,0.4-0.4h0.9c0.2,0,0.4,0.2,0.4,0.4
				C20,13.1,19.8,13.3,19.6,13.3"/>
			<path id="Numbers_7_" class="st1" d="M21.8,13.3h-0.9c-0.2,0-0.4-0.2-0.4-0.4c0-0.2,0.2-0.4,0.4-0.4h0.9c0.2,0,0.4,0.2,0.4,0.4
				C22.2,13.1,22,13.3,21.8,13.3"/>
			<path id="numbers" class="st1" d="M24,13.3h-0.9c-0.2,0-0.4-0.2-0.4-0.4c0-0.2,0.2-0.4,0.4-0.4H24c0.2,0,0.4,0.2,0.4,0.4
				C24.4,13.1,24.2,13.3,24,13.3"/>
		</g>
	</g>
</g>
</svg>
