<?xml version="1.0" encoding="utf-8"?>
<!-- Generator: Adobe Illustrator 22.1.0, SVG Export Plug-In . SVG Version: 6.00 Build 0)  -->
<svg version="1.1" id="Слой_1" xmlns="http://www.w3.org/2000/svg" xmlns:xlink="http://www.w3.org/1999/xlink" x="0px" y="0px"
	 viewBox="0 0 32 32" style="enable-background:new 0 0 32 32;" xml:space="preserve">
<style type="text/css">
	.st0{fill:#4990E2;}
</style>
<title>4A12848B-CE87-4B26-A15B-525D72596FEF</title>
<desc>Created with sketchtool.</desc>
<g id="Symbols">
	<g id="Icon-:-Share">
		<g transform="translate(7.000000, 7.000000)">
			<path class="st0" d="M17.5,19.9H0c-0.6,0-1-0.4-1-1v-4.9c0-0.6,0.4-1,1-1s1,0.4,1,1v3.9h15.5v-3.9c0-0.6,0.4-1,1-1s1,0.4,1,1v4.9
				C18.5,19.5,18,19.9,17.5,19.9z"/>
			<path class="st0" d="M8.7,14.8c-0.6,0-1-0.4-1-1l0-13.6c0-0.4,0.2-0.8,0.6-0.9c0.4-0.2,0.8-0.1,1.1,0.2L16,5.9
				c0.4,0.4,0.4,1,0,1.4c-0.4,0.4-1,0.4-1.4,0L9.7,2.6l0,11.3C9.7,14.4,9.3,14.8,8.7,14.8C8.7,14.8,8.7,14.8,8.7,14.8z"/>
			<path class="st0" d="M2.2,7.6c-0.3,0-0.5-0.1-0.7-0.3c-0.4-0.4-0.4-1,0-1.4L8-0.5c0.4-0.4,1-0.4,1.4,0c0.4,0.4,0.4,1,0,1.4
				L2.9,7.3C2.7,7.5,2.4,7.6,2.2,7.6z"/>
		</g>
	</g>
</g>
</svg>
