<?xml version="1.0" encoding="utf-8"?>
<!-- Generator: Adobe Illustrator 22.1.0, SVG Export Plug-In . SVG Version: 6.00 Build 0)  -->
<svg version="1.1" id="Слой_1" xmlns="http://www.w3.org/2000/svg" xmlns:xlink="http://www.w3.org/1999/xlink" x="0px" y="0px"
	 viewBox="0 0 32 32" style="enable-background:new 0 0 32 32;" xml:space="preserve">
<style type="text/css">
	.st0{fill:#4990E2;}
</style>
<title>EE94A922-3D4E-418B-880D-BA2DAE98FDFC</title>
<desc>Created with sketchtool.</desc>
<g id="Symbols">
	<g id="Icon-:-arrow">
		
			<g transform="translate(16.000000, 16.000000) rotate(-180.000000) translate(-16.000000, -16.000000) translate(11.000000, 6.000000)">
			<path class="st0" d="M0.2-1c0.3,0,0.5,0.1,0.7,0.3l9.7,10c0.2,0.2,0.3,0.4,0.3,0.7c0,0.3-0.1,0.5-0.3,0.7c-0.4,0.4-1,0.4-1.4,0
				l-9.7-10C-0.7,0.5-0.8,0.3-0.8,0c0-0.3,0.1-0.5,0.3-0.7C-0.3-0.9-0.1-1,0.2-1z"/>
			<path class="st0" d="M9.9,9c0.3,0,0.5,0.1,0.7,0.3c0.4,0.4,0.4,1,0,1.4l-9.7,10c-0.4,0.4-1,0.4-1.4,0c-0.4-0.4-0.4-1,0-1.4
				l9.7-10C9.3,9.1,9.6,9,9.9,9z"/>
		</g>
	</g>
</g>
</svg>
