<?xml version="1.0" encoding="utf-8"?>
<!-- Generator: Adobe Illustrator 22.1.0, SVG Export Plug-In . SVG Version: 6.00 Build 0)  -->
<svg version="1.1" id="Слой_1" xmlns="http://www.w3.org/2000/svg" xmlns:xlink="http://www.w3.org/1999/xlink" x="0px" y="0px"
	 viewBox="0 0 32 32" style="enable-background:new 0 0 32 32;" xml:space="preserve">
<style type="text/css">
	.st0{filter:url(#Adobe_OpacityMaskFilter);}
	.st1{fill:#FFFFFF;}
	.st2{mask:url(#mask-2_1_);}
	.st3{fill:#4990E2;}
</style>
<title>40476DB1-BDAB-42C6-AB5B-7EDBA0F858CD</title>
<desc>Created with sketchtool.</desc>
<g id="Symbols">
	<g id="Icon-:-rubish-bin">
		<g id="Rectangle-8" transform="translate(7.000000, 6.000000)">
			<defs>
				<filter id="Adobe_OpacityMaskFilter" filterUnits="userSpaceOnUse" x="-1" y="-1" width="20.1" height="24">
					<feColorMatrix  type="matrix" values="1 0 0 0 0  0 1 0 0 0  0 0 1 0 0  0 0 0 1 0"/>
				</filter>
			</defs>
			<mask maskUnits="userSpaceOnUse" x="-1" y="-1" width="20.1" height="24" id="mask-2_1_">
				<g class="st0">
					<rect id="path-1_2_" x="-6" y="-3" class="st1" width="16" height="18"/>
				</g>
			</mask>
			<g class="st2">
				<g>
					<path class="st3" d="M19,23H-1V1h20V23z M3,19h12V5H3V19z"/>
				</g>
				<path class="st3" d="M18.1,5H0c-0.6,0-1-0.4-1-1s0.4-1,1-1h18.1c0.6,0,1,0.4,1,1S18.7,5,18.1,5z"/>
				<path class="st3" d="M11.9,4.3H6.2c-0.8,0-1.5-0.7-1.5-1.5V0.5C4.7-0.3,5.4-1,6.2-1h5.7c0.8,0,1.5,0.7,1.5,1.5v2.4
					C13.4,3.7,12.7,4.3,11.9,4.3z M6.7,2.3h4.7V1H6.7V2.3z"/>
				<path class="st3" d="M5.3,16.7c-0.6,0-1-0.4-1-1V7.1c0-0.6,0.4-1,1-1s1,0.4,1,1v8.6C6.3,16.3,5.8,16.7,5.3,16.7z"/>
				<path class="st3" d="M9.1,16.7c-0.6,0-1-0.4-1-1V7.1c0-0.6,0.4-1,1-1s1,0.4,1,1v8.6C10.1,16.3,9.6,16.7,9.1,16.7z"/>
				<path class="st3" d="M12.9,16.7c-0.6,0-1-0.4-1-1V7.1c0-0.6,0.4-1,1-1s1,0.4,1,1v8.6C13.9,16.3,13.4,16.7,12.9,16.7z"/>
			</g>
		</g>
	</g>
</g>
</svg>
