<?xml version="1.0" encoding="utf-8"?>
<!-- Generator: Adobe Illustrator 22.1.0, SVG Export Plug-In . SVG Version: 6.00 Build 0)  -->
<svg version="1.1" id="Слой_1" xmlns="http://www.w3.org/2000/svg" xmlns:xlink="http://www.w3.org/1999/xlink" x="0px" y="0px"
	 viewBox="0 0 32 32" style="enable-background:new 0 0 32 32;" xml:space="preserve">
<style type="text/css">
	.st0{fill:#4990E2;}
</style>
<title>7E4A14AA-7DFF-46C7-8D14-FBEF512E19C8</title>
<desc>Created with sketchtool.</desc>
<g id="Symbols">
	<g id="Icon-:-arrow-right-Copy-2">
		<g transform="translate(7.000000, 6.000000)">
			<path class="st0" d="M18.9,11c-0.3,0-0.5-0.1-0.7-0.3l-9.7-10C8.3,0.5,8.2,0.3,8.2,0c0-0.3,0.1-0.5,0.3-0.7c0.4-0.4,1-0.4,1.4,0
				l9.7,10c0.2,0.2,0.3,0.4,0.3,0.7c0,0.3-0.1,0.5-0.3,0.7C19.4,10.9,19.1,11,18.9,11z"/>
			<path class="st0" d="M16.3,11H0c-0.6,0-1-0.4-1-1s0.4-1,1-1h16.3c0.6,0,1,0.4,1,1S16.8,11,16.3,11z"/>
			<path class="st0" d="M9.2,21c-0.3,0-0.5-0.1-0.7-0.3c-0.4-0.4-0.4-1,0-1.4l9.7-10c0.4-0.4,1-0.4,1.4,0c0.4,0.4,0.4,1,0,1.4
				l-9.7,10C9.7,20.9,9.5,21,9.2,21z"/>
		</g>
	</g>
</g>
</svg>
