<?xml version="1.0" encoding="utf-8"?>
<!-- Generator: Adobe Illustrator 22.1.0, SVG Export Plug-In . SVG Version: 6.00 Build 0)  -->
<svg version="1.1" id="Слой_1" xmlns="http://www.w3.org/2000/svg" xmlns:xlink="http://www.w3.org/1999/xlink" x="0px" y="0px"
	 viewBox="0 0 32 32" style="enable-background:new 0 0 32 32;" xml:space="preserve">
<style type="text/css">
	.st0{fill:#4990E2;}
</style>
<title>CAF011A2-32EC-40F0-A90D-D161228EE0E9</title>
<desc>Created with sketchtool.</desc>
<g id="Symbols">
	<g id="Icon-:-circle-thick">
		<g transform="translate(5.000000, 5.000000)">
			<path class="st0" d="M10.9,22.7C4.4,22.7-0.8,17.5-0.8,11c0-6.5,5.3-11.7,11.7-11.7S22.6,4.5,22.6,11
				C22.6,17.5,17.3,22.7,10.9,22.7z M10.9,1.3c-5.4,0-9.7,4.4-9.7,9.7s4.4,9.7,9.7,9.7c5.4,0,9.7-4.4,9.7-9.7S16.2,1.3,10.9,1.3z"/>
			<path class="st0" d="M9.5,14.8c-0.3,0-0.5-0.1-0.7-0.3l-3-3.1c-0.4-0.4-0.4-1,0-1.4c0.4-0.4,1-0.4,1.4,0l2.4,2.4l5.3-5
				c0.4-0.4,1-0.4,1.4,0c0.4,0.4,0.4,1,0,1.4l-6,5.6C10,14.7,9.7,14.8,9.5,14.8z"/>
		</g>
	</g>
</g>
</svg>
