<?xml version="1.0" encoding="utf-8"?>
<!-- Generator: Adobe Illustrator 22.1.0, SVG Export Plug-In . SVG Version: 6.00 Build 0)  -->
<svg version="1.1" id="Слой_1" xmlns="http://www.w3.org/2000/svg" xmlns:xlink="http://www.w3.org/1999/xlink" x="0px" y="0px"
	 viewBox="0 0 32 32" style="enable-background:new 0 0 32 32;" xml:space="preserve">
<style type="text/css">
	.st0{fill:#4990E2;}
</style>
<title>99B1358F-F4A8-4E5D-B8D9-395A7152FF81</title>
<desc>Created with sketchtool.</desc>
<g id="Symbols">
	<g id="Icon-:-Search">
		<g transform="translate(6.000000, 6.000000)">
			<path class="st0" d="M19.2,21c-0.3,0-0.5-0.1-0.7-0.3l-5.6-5.6c-0.4-0.4-0.4-1,0-1.4s1-0.4,1.4,0l5.6,5.6c0.4,0.4,0.4,1,0,1.4
				C19.7,20.9,19.5,21,19.2,21z"/>
			<path class="st0" d="M8.4,17C3.2,17-1,13-1,8c0-5,4.2-9,9.4-9s9.4,4,9.4,9C17.8,13,13.6,17,8.4,17z M8.4,1C4.3,1,1,4.1,1,8
				c0,3.9,3.3,7,7.4,7c4.1,0,7.4-3.1,7.4-7C15.8,4.1,12.5,1,8.4,1z"/>
		</g>
	</g>
</g>
</svg>
