<?xml version="1.0" encoding="utf-8"?>
<!-- Generator: Adobe Illustrator 22.1.0, SVG Export Plug-In . SVG Version: 6.00 Build 0)  -->
<svg version="1.1" id="Слой_1" xmlns="http://www.w3.org/2000/svg" xmlns:xlink="http://www.w3.org/1999/xlink" x="0px" y="0px"
	 viewBox="0 0 32 32" style="enable-background:new 0 0 32 32;" xml:space="preserve">
<style type="text/css">
	.st0{fill:#358ED7;}
	.st1{fill:#4990E2;}
</style>
<title>F9E0CC18-17D6-4236-8D85-21D886322973</title>
<desc>Created with sketchtool.</desc>
<g id="Symbols">
	<g id="Icon-:-Plus_circle">
		<g transform="translate(6.000000, 6.000000)">
			<path class="st0" d="M9.8,20.7C3.9,20.7-1,15.9-1,10S3.9-0.7,9.8-0.7c5.9,0,10.7,4.8,10.7,10.7S15.7,20.7,9.8,20.7z M9.8,1.3
				C5,1.3,1,5.2,1,10s3.9,8.7,8.7,8.7c4.8,0,8.7-3.9,8.7-8.7S14.6,1.3,9.8,1.3z"/>
			<path class="st1" d="M13.8,11H5.6c-0.6,0-1-0.4-1-1s0.4-1,1-1h8.2c0.6,0,1,0.4,1,1S14.4,11,13.8,11z"/>
		</g>
	</g>
</g>
</svg>
