<?xml version="1.0" encoding="utf-8"?>
<!-- Generator: Adobe Illustrator 22.1.0, SVG Export Plug-In . SVG Version: 6.00 Build 0)  -->
<svg version="1.1" id="Слой_1" xmlns="http://www.w3.org/2000/svg" xmlns:xlink="http://www.w3.org/1999/xlink" x="0px" y="0px"
	 viewBox="0 0 32 32" style="enable-background:new 0 0 32 32;" xml:space="preserve">
<style type="text/css">
	.st0{fill:#4990E2;}
</style>
<title>C0798051-DAFD-4B80-9801-89CFBAA7893C</title>
<desc>Created with sketchtool.</desc>
<g id="Symbols">
	<g id="Icon-:-Edit">
		<g transform="translate(5.000000, 5.000000)">
			<path class="st0" d="M17,23.6H0c-0.6,0-1-0.4-1-1v-17c0-0.6,0.4-1,1-1h7c0.6,0,1,0.4,1,1s-0.4,1-1,1H1v15h15v-7c0-0.6,0.4-1,1-1
				s1,0.4,1,1v8C18,23.1,17.5,23.6,17,23.6z"/>
			<path class="st0" d="M6.6,16.5c-0.3,0-0.5-0.1-0.7-0.3c-0.2-0.2-0.3-0.5-0.3-0.9l0.8-5c0-0.2,0.1-0.4,0.3-0.6l9.8-9.8
				c0.2-0.2,0.4-0.3,0.7-0.3c0.3,0,0.5,0.1,0.7,0.3l4.2,4.2c0.4,0.4,0.4,1,0,1.4l-9.8,9.8c-0.1,0.1-0.3,0.2-0.5,0.3l-5,0.8
				C6.7,16.5,6.7,16.5,6.6,16.5z M11.6,14.7L11.6,14.7L11.6,14.7z M8.3,10.9l-0.5,3.3l3.3-0.5L20,4.8L17.2,2L8.3,10.9z"/>
			<path class="st0" d="M17.9,8.8c-0.3,0-0.5-0.1-0.7-0.3l-3.9-3.9c-0.4-0.4-0.4-1,0-1.4s1-0.4,1.4,0l3.9,3.9c0.4,0.4,0.4,1,0,1.4
				C18.4,8.7,18.2,8.8,17.9,8.8z"/>
		</g>
	</g>
</g>
</svg>
