<?xml version="1.0" encoding="utf-8"?>
<!-- Generator: Adobe Illustrator 22.1.0, SVG Export Plug-In . SVG Version: 6.00 Build 0)  -->
<svg version="1.1" id="Слой_1" xmlns="http://www.w3.org/2000/svg" xmlns:xlink="http://www.w3.org/1999/xlink" x="0px" y="0px"
	 viewBox="0 0 32 32" style="enable-background:new 0 0 32 32;" xml:space="preserve">
<style type="text/css">
	.st0{filter:url(#Adobe_OpacityMaskFilter);}
	.st1{fill:#FFFFFF;}
	.st2{mask:url(#mask-2_1_);}
	.st3{fill:#4990E2;}
</style>
<title>3C04B96F-6AEE-4A43-B732-BC0D9E135990</title>
<desc>Created with sketchtool.</desc>
<g id="Symbols">
	<g id="Icon-:--Filters">
		<defs>
			<filter id="Adobe_OpacityMaskFilter" filterUnits="userSpaceOnUse" x="5" y="3" width="23" height="26">
				<feColorMatrix  type="matrix" values="1 0 0 0 0  0 1 0 0 0  0 0 1 0 0  0 0 0 1 0"/>
			</filter>
		</defs>
		<mask maskUnits="userSpaceOnUse" x="5" y="3" width="23" height="26" id="mask-2_1_">
			<g class="st0">
				<circle id="path-1_2_" class="st1" cx="7" cy="3" r="3"/>
			</g>
			<g>
				<circle id="path-3_2_" class="st1" cx="14" cy="11" r="3"/>
			</g>
			<g>
				<circle id="path-5_2_" class="st1" cx="7" cy="19" r="3"/>
			</g>
		</mask>
		<g transform="translate(6.000000, 5.000000)" class="st2">
			<path class="st3" d="M4,4H0c-0.6,0-1-0.4-1-1s0.4-1,1-1h4c0.6,0,1,0.4,1,1S4.6,4,4,4z"/>
			<path class="st3" d="M21,4H10C9.4,4,9,3.6,9,3s0.4-1,1-1h11c0.6,0,1,0.4,1,1S21.6,4,21,4z"/>
			<path class="st3" d="M21,12h-4c-0.6,0-1-0.4-1-1s0.4-1,1-1h4c0.6,0,1,0.4,1,1S21.6,12,21,12z"/>
			<path class="st3" d="M11,12H0c-0.6,0-1-0.4-1-1s0.4-1,1-1h11c0.6,0,1,0.4,1,1S11.6,12,11,12z"/>
			<path class="st3" d="M4,20H0c-0.6,0-1-0.4-1-1s0.4-1,1-1h4c0.6,0,1,0.4,1,1S4.6,20,4,20z"/>
			<path class="st3" d="M21,20H10c-0.6,0-1-0.4-1-1s0.4-1,1-1h11c0.6,0,1,0.4,1,1S21.6,20,21,20z"/>
			<g id="Oval-3">
				<path class="st3" d="M7,8C4.2,8,2,5.8,2,3s2.2-5,5-5s5,2.2,5,5S9.8,8,7,8z M7,2C6.4,2,6,2.4,6,3s0.4,1,1,1s1-0.4,1-1S7.6,2,7,2z
					"/>
			</g>
			<g id="Oval-3-Copy">
				<path class="st3" d="M14,16c-2.8,0-5-2.2-5-5s2.2-5,5-5s5,2.2,5,5S16.8,16,14,16z M14,10c-0.6,0-1,0.4-1,1s0.4,1,1,1s1-0.4,1-1
					S14.6,10,14,10z"/>
			</g>
			<g id="Oval-3-Copy-2">
				<path class="st3" d="M7,24c-2.8,0-5-2.2-5-5s2.2-5,5-5s5,2.2,5,5S9.8,24,7,24z M7,18c-0.6,0-1,0.4-1,1s0.4,1,1,1s1-0.4,1-1
					S7.6,18,7,18z"/>
			</g>
		</g>
	</g>
</g>
</svg>
