<?xml version="1.0" encoding="utf-8"?>
<!-- Generator: Adobe Illustrator 22.1.0, SVG Export Plug-In . SVG Version: 6.00 Build 0)  -->
<svg version="1.1" id="Слой_1" xmlns="http://www.w3.org/2000/svg" xmlns:xlink="http://www.w3.org/1999/xlink" x="0px" y="0px"
	 viewBox="0 0 32 32" style="enable-background:new 0 0 32 32;" xml:space="preserve">
<style type="text/css">
	.st0{fill:#4990E2;}
</style>
<title>EE9AF111-B804-4F6E-95FE-A0F22339E270</title>
<desc>Created with sketchtool.</desc>
<g id="Symbols">
	<g id="Icon-:-Plus">
		
			<g transform="translate(16.000000, 16.000000) rotate(-315.000000) translate(-16.000000, -16.000000) translate(6.000000, 6.000000)">
			<g id="Group-22">
				<g id="Clip-21">
				</g>
			</g>
			<path class="st0" d="M19.3,19.3c-0.4,0.4-1,0.4-1.4,0L0.7,2.1c-0.4-0.4-0.4-1,0-1.4s1-0.4,1.4,0l17.1,17.1
				C19.7,18.3,19.7,18.9,19.3,19.3z"/>
			<path class="st0" d="M19.3,2.1L2.1,19.3c-0.4,0.4-1,0.4-1.4,0c-0.4-0.4-0.4-1,0-1.4L17.9,0.7c0.4-0.4,1-0.4,1.4,0
				C19.7,1.1,19.7,1.7,19.3,2.1z"/>
		</g>
	</g>
</g>
</svg>
