<?xml version="1.0" encoding="utf-8"?>
<!-- Generator: Adobe Illustrator 22.1.0, SVG Export Plug-In . SVG Version: 6.00 Build 0)  -->
<svg version="1.1" id="Слой_1" xmlns="http://www.w3.org/2000/svg" xmlns:xlink="http://www.w3.org/1999/xlink" x="0px" y="0px"
	 viewBox="0 0 32 32" style="enable-background:new 0 0 32 32;" xml:space="preserve">
<style type="text/css">
	.st0{filter:url(#Adobe_OpacityMaskFilter);}
	.st1{fill:#FFFFFF;}
	.st2{mask:url(#mask-2_1_);}
	.st3{fill:#358ED7;}
</style>
<title>0836A36D-CCC4-474E-8E24-945D35B0E0C8</title>
<desc>Created with sketchtool.</desc>
<g id="Symbols">
	<g id="Icon-:-warning">
		<defs>
			<filter id="Adobe_OpacityMaskFilter" filterUnits="userSpaceOnUse" x="4" y="4" width="24" height="24">
				<feColorMatrix  type="matrix" values="1 0 0 0 0  0 1 0 0 0  0 0 1 0 0  0 0 0 1 0"/>
			</filter>
		</defs>
		<mask maskUnits="userSpaceOnUse" x="4" y="4" width="24" height="24" id="mask-2_1_">
			<g class="st0">
				<circle id="path-1_2_" class="st1" cx="10" cy="10" r="10"/>
			</g>
		</mask>
		<g transform="translate(6.000000, 6.000000)" class="st2">
			<g id="Oval">
				<path class="st3" d="M10,22C3.4,22-2,16.6-2,10C-2,3.4,3.4-2,10-2c6.6,0,12,5.4,12,12C22,16.6,16.6,22,10,22z M10,2
					c-4.4,0-8,3.6-8,8s3.6,8,8,8s8-3.6,8-8S14.4,2,10,2z"/>
			</g>
			<path id="_x21_" class="st3" d="M10.9,5v4c0,0.4,0,0.8-0.1,1.2c0,0.4-0.1,0.8-0.2,1.3H9.5c-0.1-0.5-0.1-0.9-0.2-1.3
				c0-0.4-0.1-0.8-0.1-1.2V5H10.9z M9,14.1c0-0.1,0-0.3,0.1-0.4c0.1-0.1,0.1-0.2,0.2-0.3c0.1-0.1,0.2-0.2,0.3-0.2
				c0.1-0.1,0.3-0.1,0.4-0.1c0.1,0,0.3,0,0.4,0.1c0.1,0.1,0.2,0.1,0.3,0.2c0.1,0.1,0.2,0.2,0.2,0.3c0.1,0.1,0.1,0.3,0.1,0.4
				c0,0.1,0,0.3-0.1,0.4c-0.1,0.1-0.1,0.2-0.2,0.3c-0.1,0.1-0.2,0.2-0.3,0.2c-0.1,0.1-0.3,0.1-0.4,0.1c-0.1,0-0.3,0-0.4-0.1
				C9.5,15,9.4,15,9.3,14.9c-0.1-0.1-0.2-0.2-0.2-0.3C9,14.4,9,14.3,9,14.1L9,14.1z"/>
		</g>
	</g>
</g>
</svg>
