<?xml version="1.0" encoding="utf-8"?>
<!-- Generator: Adobe Illustrator 22.1.0, SVG Export Plug-In . SVG Version: 6.00 Build 0)  -->
<svg version="1.1" id="Слой_1" xmlns="http://www.w3.org/2000/svg" xmlns:xlink="http://www.w3.org/1999/xlink" x="0px" y="0px"
	 viewBox="0 0 32 32" style="enable-background:new 0 0 32 32;" xml:space="preserve">
<style type="text/css">
	.st0{fill:#4990E2;}
</style>
<title>A170E977-A72A-4EB1-904A-E58418F1BFBB</title>
<desc>Created with sketchtool.</desc>
<g id="Symbols">
	<g id="Icon-:-user-Copy">
		<g transform="translate(7.000000, 6.000000)">
			<path class="st0" d="M18.3,17.5c-0.6,0-1-0.4-1-1c0-2.8-3.7-5.1-8.1-5.1c-4.4,0-8.1,2.3-8.1,5.1c0,0.6-0.4,1-1,1s-1-0.4-1-1
				c0-4,4.4-7.1,10.1-7.1c5.7,0,10.1,3.1,10.1,7.1C19.3,17.1,18.8,17.5,18.3,17.5z"/>
			<path class="st0" d="M9.6,11.4c-3.4,0-6.2-2.8-6.2-6.2S6.1-1,9.6-1c3.4,0,6.2,2.8,6.2,6.2S13,11.4,9.6,11.4z M9.6,1
				C7.2,1,5.3,2.9,5.3,5.2s1.9,4.2,4.2,4.2c2.3,0,4.2-1.9,4.2-4.2S11.9,1,9.6,1z"/>
			<path class="st0" d="M17.9,21H0.6C-0.2,21-1,20.2-1,19.4v-2.9c0-0.6,0.4-1,1-1s1,0.4,1,1V19h16.3l0-2.5c0-0.6,0.4-1,1-1
				s1,0.4,1,1v2.9C19.3,20.3,18.7,21,17.9,21z M1,19.4L1,19.4C1,19.4,1,19.4,1,19.4z"/>
		</g>
	</g>
</g>
</svg>
