<?xml version="1.0" encoding="utf-8"?>
<!-- Generator: Adobe Illustrator 22.1.0, SVG Export Plug-In . SVG Version: 6.00 Build 0)  -->
<svg version="1.1" id="Слой_1" xmlns="http://www.w3.org/2000/svg" xmlns:xlink="http://www.w3.org/1999/xlink" x="0px" y="0px"
	 viewBox="0 0 32 32" style="enable-background:new 0 0 32 32;" xml:space="preserve">
<style type="text/css">
	.st0{fill:#358ED7;}
	.st1{fill:#4990E2;}
</style>
<title>69A37C95-AC6F-41A6-88B9-4D21EDBB47E7</title>
<desc>Created with sketchtool.</desc>
<g id="Symbols">
	<g id="Icon-:-minus_circle">
		<g transform="translate(6.000000, 6.000000)">
			<path class="st0" d="M10.5,22C4.2,22-1,16.8-1,10.5C-1,4.2,4.2-1,10.5-1C16.8-1,22,4.2,22,10.5C22,16.8,16.8,22,10.5,22z M10.5,1
				C5.3,1,1,5.3,1,10.5S5.3,20,10.5,20s9.5-4.3,9.5-9.5S15.7,1,10.5,1z"/>
			<path class="st1" d="M10,15c-0.6,0-1-0.4-1-1V6c0-0.6,0.4-1,1-1s1,0.4,1,1v8C11,14.6,10.6,15,10,15z"/>
			<path class="st1" d="M14,11H6c-0.6,0-1-0.4-1-1s0.4-1,1-1h8c0.6,0,1,0.4,1,1S14.6,11,14,11z"/>
		</g>
	</g>
</g>
</svg>
