<?xml version="1.0" encoding="utf-8"?>
<!-- Generator: Adobe Illustrator 22.1.0, SVG Export Plug-In . SVG Version: 6.00 Build 0)  -->
<svg version="1.1" id="Слой_1" xmlns="http://www.w3.org/2000/svg" xmlns:xlink="http://www.w3.org/1999/xlink" x="0px" y="0px"
	 viewBox="0 0 32 32" style="enable-background:new 0 0 32 32;" xml:space="preserve">
<style type="text/css">
	.st0{fill:#4990E2;}
</style>
<title>5D31357A-7F03-4126-9772-663AECC546B1</title>
<desc>Created with sketchtool.</desc>
<g id="Symbols">
	<g id="Icon-:-basket">
		<g transform="translate(6.000000, 7.000000)">
			<path class="st0" d="M16.1,18.9H3.4c-1,0-1.4-1.1-1.4-1.5L-0.9,6.9c-0.1-0.4,0-0.9,0.2-1.2c0.3-0.3,0.6-0.5,1.1-0.5h18.7
				c0.2,0,0.8,0,1.1,0.5c0.2,0.2,0.3,0.6,0.2,1.1l-2.8,10.7C17.4,18.2,16.8,18.9,16.1,18.9z M3.8,16.9h11.8l2.6-9.7l-17,0L3.8,16.9z
				 M19.1,7.2L19.1,7.2L19.1,7.2z M18.5,6.3C18.5,6.3,18.5,6.3,18.5,6.3L18.5,6.3z"/>
			<path class="st0" d="M2.3,7.2C2.1,7.2,1.9,7.1,1.7,7C1.3,6.6,1.2,6,1.6,5.6L7-0.7c0.4-0.4,1-0.5,1.4-0.1c0.4,0.4,0.5,1,0.1,1.4
				L3.1,6.9C2.9,7.1,2.6,7.2,2.3,7.2z"/>
			<path class="st0" d="M17.1,7.2c-0.3,0-0.6-0.1-0.8-0.3l-5.4-6.2c-0.4-0.4-0.3-1,0.1-1.4c0.4-0.4,1-0.3,1.4,0.1l5.4,6.2
				c0.4,0.4,0.3,1-0.1,1.4C17.6,7.1,17.4,7.2,17.1,7.2z"/>
			<path class="st0" d="M6,13.7c-0.3,0-0.5-0.2-0.5-0.5v-3.1c0-0.3,0.2-0.5,0.5-0.5s0.5,0.2,0.5,0.5v3.1C6.5,13.5,6.3,13.7,6,13.7z"
				/>
			<path class="st0" d="M14,13.7c-0.3,0-0.5-0.2-0.5-0.5v-3.1c0-0.3,0.2-0.5,0.5-0.5s0.5,0.2,0.5,0.5v3.1
				C14.5,13.5,14.3,13.7,14,13.7z"/>
			<path class="st0" d="M10,13.7c-0.3,0-0.5-0.2-0.5-0.5v-3.1c0-0.3,0.2-0.5,0.5-0.5s0.5,0.2,0.5,0.5v3.1
				C10.5,13.5,10.3,13.7,10,13.7z"/>
		</g>
	</g>
</g>
</svg>
